<svg xmlns="http://www.w3.org/2000/svg" viewBox="0 0 560 340" fill="none">
  <rect width="560" height="340" rx="12" fill="white" stroke="rgb(226 232 240)" stroke-width="1"/>
  <rect x="24" y="20" width="140" height="28" rx="6" fill="rgb(248 250 252)" stroke="rgb(226 232 240)"/>
  <rect x="24" y="64" width="512" height="56" rx="8" fill="rgb(248 250 252)" stroke="rgb(226 232 240)"/>
  <circle cx="52" cy="96" r="14" fill="rgb(34 197 94)" opacity="0.2" stroke="rgb(34 197 94)" stroke-width="1.5"/>
  <path d="M46 96 L50 100 L58 92" stroke="rgb(34 197 94)" stroke-width="2" fill="none" stroke-linecap="round" stroke-linejoin="round"/>
  <rect x="80" y="84" width="120" height="24" rx="2" fill="rgb(241 245 249)"/>
  <rect x="24" y="136" width="512" height="1" fill="rgb(226 232 240)"/>
  <rect x="24" y="152" width="256" height="80" rx="8" fill="white" stroke="rgb(226 232 240)"/>
  <rect x="40" y="168" width="80" height="12" rx="2" fill="rgb(241 245 249)"/>
  <rect x="40" y="188" width="200" height="8" rx="2" fill="rgb(241 245 249)"/>
  <rect x="40" y="204" width="180" height="8" rx="2" fill="rgb(241 245 249)"/>
  <rect x="296" y="152" width="240" height="80" rx="8" fill="white" stroke="rgb(226 232 240)"/>
  <rect x="312" y="168" width="80" height="12" rx="2" fill="rgb(241 245 249)"/>
  <rect x="312" y="188" width="200" height="8" rx="2" fill="rgb(241 245 249)"/>
  <rect x="24" y="248" width="512" height="72" rx="8" fill="rgb(248 250 252)" stroke="rgb(226 232 240)"/>
</svg>
