<svg xmlns="http://www.w3.org/2000/svg" viewBox="0 0 480 360" fill="none">
  <rect width="480" height="360" rx="12" fill="rgb(248 250 252)" stroke="rgb(226 232 240)" stroke-width="1"/>
  <!-- Dashboard outline -->
  <rect x="40" y="32" width="160" height="24" rx="4" fill="rgb(241 245 249)" stroke="rgb(203 213 225)" stroke-width="0.5"/>
  <rect x="40" y="72" width="400" height="120" rx="8" fill="white" stroke="rgb(226 232 240)" stroke-width="1"/>
  <rect x="56" y="88" width="100" height="48" rx="6" fill="rgb(241 245 249)"/>
  <rect x="172" y="88" width="100" height="48" rx="6" fill="rgb(241 245 249)"/>
  <rect x="288" y="88" width="100" height="48" rx="6" fill="rgb(241 245 249)"/>
  <rect x="56" y="148" width="332" height="8" rx="2" fill="rgb(226 232 240)"/>
  <rect x="56" y="164" width="280" height="8" rx="2" fill="rgb(226 232 240)"/>
  <!-- Chart suggestion -->
  <path d="M56 240 L120 200 L184 220 L248 180 L312 200 L376 160 L440 190" stroke="rgb(59 130 246)" stroke-width="2" fill="none" stroke-linecap="round" stroke-linejoin="round"/>
  <rect x="40" y="268" width="400" height="72" rx="8" fill="white" stroke="rgb(226 232 240)" stroke-width="1"/>
  <circle cx="64" cy="304" r="8" fill="rgb(59 130 246)" opacity="0.2"/>
  <rect x="80" y="296" width="80" height="16" rx="2" fill="rgb(241 245 249)"/>
  <circle cx="200" cy="304" r="8" fill="rgb(59 130 246)" opacity="0.2"/>
  <rect x="216" y="296" width="80" height="16" rx="2" fill="rgb(241 245 249)"/>
</svg>
